# xmcd CD database file
# Copyright (C) 1993-1996 Ti Kan
#
# Track frame offsets:
#  150
#  24255
#  40869
#  57682
#  77402
#  98952
#  116889
#  128876
#  170499
#  192092
#  219984
#  241427
#
# Disc length: 3439 seconds
#
# Revision: 1
# Processed by: cddbd v1.5.2PL0 Copyright (c) Steve Scherf et al.
# Submitted via: Advanced CD Ripper Pro 2.0
#
DISCID=a10d6d0c
DTITLE=ÝZZET ALTINMEÞE - DERDO
DYEAR=2007
DGENRE=
TTITLE0=DERDO
TTITLE1=SEV GÜLEY
TTITLE2=DOST GELSEN
TTITLE3=SENEM
TTITLE4=EY MEDET
TTITLE5=YAZ GELENDE
TTITLE6=KAYNATIN ÇAYI
TTITLE7=POTPORÝ
TTITLE8=GELÝN
TTITLE9=HAKÝM GÖZLERÝN
TTITLE10=GAMZELÝM
TTITLE11=DÜÐMELÝ
EXTD=
EXTT0=
EXTT1=
EXTT2=
EXTT3=
EXTT4=
EXTT5=
EXTT6=
EXTT7=
EXTT8=
EXTT9=
EXTT10=
EXTT11=
PLAYORDER=
